# xmcd
#
# Track frame offsets: 
#        150
#        13765
#        25348
#        34054
#        45690
#        57735
#        69331
#        79241
#        91217
#        112066
#        125299
#        138696
#        154022
#        163750
#        186119
#        212445
#
# Disc length: 3214 seconds
#
# Revision: 0
# Processed by: cddbd v1.5.2PL0 Copyright (c) Steve Scherf et al.
# Submitted via: ExactAudioCopy v1.0b1
#
DISCID=de0c8c10
DTITLE=Jefferson Airplane - The Best of Jefferson Airplane
DYEAR=1900
DGENRE=Blues
TTITLE0=Somebody to Love
TTITLE1=White Rabbit
TTITLE2=Embryonic Journey
TTITLE3=High Flyin' Bird
TTITLE4=It's No Secret
TTITLE5=Come Up the Years
TTITLE6=Blues from an Airplane
TTITLE7=Plastic Fantastic Lover
TTITLE8=Ballad of You and Me and Pooneil
TTITLE9=Crown of Creation
TTITLE10=Lather
TTITLE11=Greasy Heart
TTITLE12=Volunteers
TTITLE13=Triad
TTITLE14=We Can Be Together
TTITLE15=Wooden Ships
EXTD=
EXTT0=
EXTT1=
EXTT2=
EXTT3=
EXTT4=
EXTT5=
EXTT6=
EXTT7=
EXTT8=
EXTT9=
EXTT10=
EXTT11=
EXTT12=
EXTT13=
EXTT14=
EXTT15=
PLAYORDER=
